Coordinates
version=1
nRows=14
nColumns=40
inDegrees=yes
endheader
time	pelvis_tilt	pelvis_list	pelvis_rotation	pelvis_tx	pelvis_ty	pelvis_tz	hip_flexion_r	hip_adduction_r	hip_rotation_r	knee_angle_r	knee_angle_r_beta	ankle_angle_r	subtalar_angle_r	mtp_angle_r	hip_flexion_l	hip_adduction_l	hip_rotation_l	knee_angle_l	knee_angle_l_beta	ankle_angle_l	subtalar_angle_l	mtp_angle_l	lumbar_extension	lumbar_bending	lumbar_rotation	arm_flex_r	arm_add_r	arm_rot_r	elbow_flex_r	pro_sup_r	wrist_flex_r	wrist_dev_r	arm_flex_l	arm_add_l	arm_rot_l	elbow_flex_l	pro_sup_l	wrist_flex_l	wrist_dev_l
1760625401.39800000	      0.23697824	      0.01461657	      0.00660975	      0.00059401	      0.94353062	     -0.00457059	     80.00000000	     -7.00000000	      0.00000000	     80.00000000	      1.39626340	      0.00000000	      0.00000000	      0.00000000	     80.00000000	     -7.00000000	      0.00000000	     80.00000000	      1.39626340	      0.00000000	      0.00000000	      0.00000000	     -6.01089562	     -2.02237566	     -1.62114016	      6.64605340	      0.98461908	      1.36897630	      0.00000000	      0.06672647	     -0.65540708	      1.07100893	      7.35608456	     -4.60285843	     -1.24006570	      2.08375349	      0.02236382	     -2.90293036	      1.57944724
1760625401.43099999	      0.24261280	      0.02260750	      0.00971354	     -0.00169128	      0.95012813	     -0.00388744	     80.00000000	     -7.00000000	      0.00000000	     80.00000000	      1.39626340	      0.00000000	      0.00000000	      0.00000000	     80.00000000	     -7.00000000	      0.00000000	     80.00000000	      1.39626340	      0.00000000	      0.00000000	      0.00000000	     -5.42853032	     -1.95698966	     -1.87732066	      5.96819567	      0.93853381	      1.66666803	      0.00000000	      0.09089303	     -0.55354852	      1.03922681	      6.76251508	     -4.56363851	     -1.52448659	      2.12913152	      0.00510333	     -2.97902933	      1.57138569
1760625401.46499991	      0.24140737	      0.03697091	      0.00683566	     -0.00202751	      0.95121034	     -0.00360370	     80.00000000	     -7.00000000	      0.00000000	     80.00000000	      1.39626340	      0.00000000	      0.00000000	      0.00000000	     80.00000000	     -7.00000000	      0.00000000	     80.00000000	      1.39626340	      0.00000000	      0.00000000	      0.00000000	     -5.42527354	     -1.93067855	     -1.88587077	      5.94332844	      0.91785329	      1.66712102	      0.00000000	      0.16305978	     -0.50649488	      1.00807646	      6.75922448	     -4.55191461	     -1.56798412	      2.11465933	      0.00167426	     -2.98932432	      1.59492154
1760625401.49799991	      0.25009630	      0.02977067	      0.01450351	     -0.00223995	      0.95188935	     -0.00361383	     80.00000000	     -7.00000000	      0.00000000	     80.00000000	      1.39626340	      0.00000000	      0.00000000	      0.00000000	     80.00000000	     -7.00000000	      0.00000000	     80.00000000	      1.39626340	      0.00000000	      0.00000000	      0.00000000	     -5.31385875	     -1.87224538	     -1.98337168	      5.80253277	      0.88046853	      1.77986081	      0.00000000	      0.11090249	     -0.47559394	      1.00004421	      6.61957427	     -4.52666942	     -1.68365773	      2.11801227	      0.04530290	     -2.98931846	      1.59102166
1760625401.53099990	      0.25040424	      0.02801447	      0.02972068	     -0.00216218	      0.95190968	     -0.00442311	     80.00000000	     -7.00000000	      0.00000000	     80.00000000	      1.39626340	      0.00000000	      0.00000000	      0.00000000	     80.00000000	     -7.00000000	      0.00000000	     80.00000000	      1.39626340	      0.00000000	      0.00000000	      0.00000000	     -5.32892107	     -1.89079089	     -1.99235061	      5.82347979	      0.91142172	      1.80685826	      0.00000000	      0.04501927	     -0.47362392	      0.99497260	      6.60363075	     -4.54497498	     -1.68278205	      2.10967181	      0.00000000	     -2.99379909	      1.59561426
1760625401.56500006	      0.24403239	      0.03542116	      0.02731608	     -0.00224608	      0.95258076	     -0.00432883	     80.00000000	     -7.00000000	      0.00000000	     80.00000000	      1.39626340	      0.00000000	      0.00000000	      0.00000000	     80.00000000	     -7.00000000	      0.00000000	     80.00000000	      1.39626340	      0.00000000	      0.00000000	      0.00000000	     -5.32876412	     -1.98298085	     -2.03602548	      5.83681781	      1.00873331	      1.81265689	      0.00000000	      0.04235431	     -0.46036439	      0.98761394	      6.60162119	     -4.64527120	     -1.76780858	      2.09500800	      0.03048315	     -3.00486302	      1.60873019
1760625401.59800005	      0.25568923	      0.03334605	      0.03735532	     -0.00309207	      0.95256599	     -0.00359458	     80.00000000	     -7.00000000	      0.00000000	     80.00000000	      1.39626340	      0.00000000	      0.00000000	      0.00000000	     80.00000000	     -7.00000000	      0.00000000	     80.00000000	      1.39626340	      0.00000000	      0.00000000	      0.00000000	     -5.25211543	     -2.02774889	     -2.00553690	      5.75849474	      1.05380054	      1.76535368	      0.00000000	      0.11081529	     -0.46142337	      0.92619835	      6.50182655	     -4.68594206	     -1.72392728	      1.98564238	      0.00000000	     -2.96485231	      1.63352358
1760625401.66499996	      0.25700194	      0.02965817	      0.03717057	     -0.00386347	      0.95280953	     -0.00312497	     80.00000000	     -7.00000000	      0.00000000	     80.00000000	      1.39626340	      0.00000000	      0.00000000	      0.00000000	     80.00000000	     -7.00000000	      0.00000000	     80.00000000	      1.39626340	      0.00000000	      0.00000000	      0.00000000	     -5.26014974	     -2.03706830	     -1.99340927	      5.75795751	      1.09290879	      1.67161006	      0.00000000	      0.16920510	     -0.48630997	      0.87148741	      6.48965546	     -4.74251148	     -1.82640532	      1.92433175	      0.00000000	     -3.00172819	      1.69104020
1760625401.69899988	      0.26157621	      0.03259519	      0.05410789	     -0.00364824	      0.95280883	     -0.00297951	     80.00000000	     -7.00000000	      0.00000000	     80.00000000	      1.39626340	      0.00000000	      0.00000000	      0.00000000	     80.00000000	     -7.00000000	      0.00000000	     80.00000000	      1.39626340	      0.00000000	      0.00000000	      0.00000000	     -5.27542044	     -2.04213146	     -1.99375488	      5.77268118	      1.09879138	      1.60494363	      0.00000000	      0.20666422	     -0.49802884	      0.85282992	      6.47805172	     -4.76428424	     -1.89214039	      1.88988981	      0.00000000	     -3.01020584	      1.70576801
1760625401.73200011	      0.25839450	      0.03254994	      0.06825419	     -0.00313903	      0.95340098	     -0.00310679	     80.00000000	     -7.00000000	      0.00000000	     80.00000000	      1.39626340	      0.00000000	      0.00000000	      0.00000000	     80.00000000	     -7.00000000	      0.00000000	     80.00000000	      1.39626340	      0.00000000	      0.00000000	      0.00000000	     -5.41295530	     -2.01003484	     -2.04459906	      5.91742442	      1.07590220	      1.61310140	      0.00000000	      0.23597274	     -0.52308514	      0.82829894	      6.60854960	     -4.76234669	     -1.93378094	      1.85285757	      0.00000000	     -3.03278699	      1.71250658
1760625401.76600003	      0.24876998	      0.03929629	      0.07617596	     -0.00246064	      0.95378036	     -0.00311870	     80.00000000	     -7.00000000	      0.00000000	     80.00000000	      1.39626340	      0.00000000	      0.00000000	      0.00000000	     80.00000000	     -7.00000000	      0.00000000	     80.00000000	      1.39626340	      0.00000000	      0.00000000	      0.00000000	     -5.41737454	     -1.99973818	     -2.03896648	      5.92456814	      1.06617752	      1.57618166	      0.00000000	      0.21330109	     -0.51598896	      0.82681178	      6.61264403	     -4.77359169	     -1.98008656	      1.84498138	      0.00000000	     -3.04244512	      1.71384881
1760625401.79900002	      0.27298282	      0.03521282	      0.09788040	     -0.00192335	      0.95406379	     -0.00359416	     80.00000000	     -7.00000000	      0.00000000	     80.00000000	      1.39626340	      0.00000000	      0.00000000	      0.00000000	     80.00000000	     -7.00000000	      0.00000000	     80.00000000	      1.39626340	      0.00000000	      0.00000000	      0.00000000	     -5.54854607	     -1.86344561	     -2.14974319	      6.02681893	      0.94659598	      1.60370653	      0.00000000	      0.20205179	     -0.49510120	      0.82597761	      6.69770514	     -4.70766174	     -2.07908845	      1.83595508	      0.00000000	     -3.09469877	      1.72610344
1760625401.83299994	      0.26955589	      0.04334909	      0.11068339	     -0.00240606	      0.95452379	     -0.00367797	     80.00000000	     -7.00000000	      0.00000000	     80.00000000	      1.39626340	      0.00000000	      0.00000000	      0.00000000	     80.00000000	     -7.00000000	      0.00000000	     80.00000000	      1.39626340	      0.00000000	      0.00000000	      0.00000000	     -5.56665179	     -1.85275276	     -2.18647560	      6.04053626	      0.93727292	      1.58725319	      0.00000000	      0.28706618	     -0.49292582	      0.81107470	      6.70096748	     -4.72484549	     -2.11655615	      1.80287672	      0.00000000	     -3.12662609	      1.76408843
1760625401.86599994	      0.24793667	      0.04299213	      0.11515793	     -0.00198043	      0.95496813	     -0.00402834	     80.00000000	     -7.00000000	      0.00000000	     80.00000000	      1.39626340	      0.00000000	      0.00000000	      0.00000000	     80.00000000	     -7.00000000	      0.00000000	     80.00000000	      1.39626340	      0.00000000	      0.00000000	      0.00000000	     -5.57053081	     -1.82983459	     -2.21383084	      6.06207352	      0.92433258	      1.57033032	      0.00000000	      0.30533053	     -0.49041303	      0.80528352	      6.69076077	     -4.73187092	     -2.13521379	      1.76987059	      0.00000000	     -3.14190688	      1.77150737
